<?xml version="1.0" encoding="utf-8"?>
<!-- Generator: Adobe Illustrator 24.2.1, SVG Export Plug-In . SVG Version: 6.00 Build 0)  -->
<svg version="1.1" id="Layer_1" xmlns="http://www.w3.org/2000/svg" xmlns:xlink="http://www.w3.org/1999/xlink" x="0px" y="0px"
	 viewBox="0 0 32 32" style="enable-background:new 0 0 32 32;" xml:space="preserve">
<style type="text/css">
	.st0{fill:#43A7DE;}
	.st1{fill:#BCBCBC;}
</style>
<g id="Layer_2_1_">
	<g id="Layer_1-2">
		<path class="st0" d="M16.5,23.1l0.8,2.8c0.1,0.3,0.3,0.4,0.6,0.3l2.8-0.8c0.1,0,0.2-0.1,0.3-0.2l7.2-13l-4.5-2.5l-7.2,13
			C16.5,22.8,16.4,22.9,16.5,23.1z M30,8.8c0.2-0.5,0.1-1-0.4-1.3l-2.8-1.6c-0.5-0.2-1-0.1-1.3,0.4l-1.2,2.2l4.5,2.5L30,8.8z"/>
		<path class="st1" d="M15.9,13.9H3.7c-0.8-0.2-1.6,0.4-1.8,1.2c-0.2,0.8,0.4,1.6,1.2,1.8c0.2,0,0.4,0,0.6,0h12.2
			c0.8,0.2,1.6-0.4,1.8-1.2c0.2-0.8-0.4-1.6-1.2-1.8C16.3,13.9,16.1,13.9,15.9,13.9z M18.9,7.8H3.7C2.8,7.7,2.1,8.3,2,9.2
			C2,10,2.6,10.8,3.4,10.8c0.1,0,0.2,0,0.2,0h15.2c0.8-0.2,1.4-1,1.2-1.8C20,8.4,19.5,7.9,18.9,7.8L18.9,7.8z M3.7,23.1h9.1
			c0.8-0.2,1.4-1,1.2-1.8c-0.1-0.6-0.6-1.1-1.2-1.2H3.7c-0.8-0.2-1.6,0.4-1.8,1.2s0.4,1.6,1.2,1.8C3.3,23.1,3.5,23.1,3.7,23.1z"/>
	</g>
</g>
</svg>
