<?xml version="1.0" encoding="utf-8"?>
<!-- Generator: Adobe Illustrator 25.0.1, SVG Export Plug-In . SVG Version: 6.00 Build 0)  -->
<svg version="1.1" id="Layer_1" xmlns="http://www.w3.org/2000/svg" xmlns:xlink="http://www.w3.org/1999/xlink" x="0px" y="0px"
	 width="32px" height="32px" viewBox="0 0 32 32" style="enable-background:new 0 0 32 32;" xml:space="preserve">
<style type="text/css">
	.st0{fill:#01B0FF;}
</style>
<g>
	<path class="st0" d="M11,5.3c-0.9-0.9-1.7-1.6-2.4-2.4C7.9,2.3,7.9,1.7,8.4,1.2c0.5-0.5,1.1-0.4,1.8,0.2c1.2,1.1,2.3,2.3,3.5,3.4
		c0.3,0.2,0.5,0.5,0.5,0.5l3.9,0c0,0,1.7-1.6,2.5-2.4c0.6-0.5,1.1-1.1,1.6-1.6c0.5-0.5,1.2-0.5,1.6-0.1c0.4,0.5,0.4,1-0.1,1.6
		c-0.4,0.4-0.8,0.8-1.2,1.2c-0.4,0.4-0.8,0.8-1.3,1.3c0.5,0,0.7,0,1,0c1.8,0,3.7-0.1,5.5,0.1C30.3,5.8,32,8,32,10.7
		c0,4.4,0,8.7,0,13.1c0,3.3-2.2,5.6-5.5,5.6c-0.2,0-0.4,0-0.6,0c-0.2,1-0.7,1.7-1.8,1.8c-0.9,0-1.4-0.4-1.9-1.7c-4.1,0-8.2,0-12.4,0
		c-0.3,1-0.8,1.8-2,1.7c-0.9,0-1.4-0.5-1.7-1.7c-0.7-0.1-1.3-0.1-2-0.2C1.7,28.7,0,26.6,0,24c0-4.5,0-9,0-13.4
		c0-2.9,2.4-5.3,5.3-5.3c1.6,0,3.1,0,4.7,0C10.3,5.3,10.5,5.3,11,5.3z M15.9,8.5c-3.3,0-6.7,0-10,0c-1.5,0-2.3,0.7-2.3,2.3
		c0,4.4,0.1,8.9,0.1,13.3c0,1.4,0.8,2.1,2.2,2.1c6.8,0,13.5,0,20.3,0c1.4,0,2.1-0.7,2.1-2.1c0-4.4,0-8.8-0.1-13.1
		c0-1.7-0.7-2.4-2.4-2.4C22.5,8.5,19.2,8.5,15.9,8.5z"/>
	<path class="st0" d="M12.9,15.6c-2.3,0.4-4.5,0.9-6.8,1.3C6,16,5.8,15.2,5.7,14.3c2.3-0.4,4.5-0.9,6.8-1.3
		C12.6,13.9,12.7,14.7,12.9,15.6z"/>
	<path class="st0" d="M26.2,14.3c-0.2,0.9-0.3,1.7-0.5,2.6c-2.3-0.4-4.4-0.9-6.7-1.3c0.2-0.9,0.3-1.7,0.5-2.6
		C21.7,13.4,23.9,13.9,26.2,14.3z"/>
	<path class="st0" d="M16,19.6c0.3,0.5,0.5,0.8,0.7,1.1c0.6,0.9,1.4,1,2.2,0.2c0.3-0.4,0.7-1.1,1.3-0.5c0.6,0.5,0,1-0.3,1.5
		c-1,1.2-2.3,1.2-3.8,0.2c-1.8,1.1-3,0.9-4-0.4c-0.1-0.2-0.3-0.4-0.3-0.6c0-0.2,0.1-0.6,0.3-0.7c0.1-0.1,0.5,0,0.7,0.1
		c0.1,0,0.2,0.2,0.3,0.3c0.9,1.1,1.7,1,2.4-0.2C15.6,20.2,15.8,19.9,16,19.6z"/>
</g>
</svg>
