<?xml version="1.0" encoding="utf-8"?>
<!-- Generator: Adobe Illustrator 24.2.1, SVG Export Plug-In . SVG Version: 6.00 Build 0)  -->
<svg version="1.1" id="Layer_1" xmlns="http://www.w3.org/2000/svg" xmlns:xlink="http://www.w3.org/1999/xlink" x="0px" y="0px"
	 viewBox="0 0 32 32" style="enable-background:new 0 0 32 32;" xml:space="preserve">
<style type="text/css">
	.st0{fill-rule:evenodd;clip-rule:evenodd;fill:#43A7DE;}
	.st1{fill:#FFFFFF;}
</style>
<g id="Layer_2_1_">
	<g id="Layer_1-2">
		<path class="st0" d="M27.4,3.2H4.6C3.2,3.2,2,4.3,2,5.8c0,0,0,0,0,0v15.9c0,1.4,1.1,2.6,2.6,2.6h15.6l4.3,4.3
			c0.3,0.3,0.9,0.3,1.2,0c0.2-0.2,0.3-0.4,0.3-0.6v-3.7h1.5c1.4,0,2.5-1.2,2.6-2.6V5.8C30,4.4,28.8,3.2,27.4,3.2z"/>
		<path class="st1" d="M23.8,9.3c0-0.9-0.7-1.7-1.6-1.7c-0.9,0-1.7,0.7-1.7,1.6c0,0,0,0,0,0c0,0.3,0.1,0.5,0.2,0.8l-2,4.3
			c-0.1,0-0.2,0-0.3,0c-0.2,0-0.4,0-0.6,0.1L16.1,12c0.3-0.4,0.4-0.9,0.4-1.4c0-1.5-1.2-2.7-2.7-2.7c-1.5,0-2.7,1.2-2.7,2.7
			c0,0.6,0.2,1.2,0.5,1.6l-2.2,3.1c-0.9,0-1.7,0.7-1.7,1.6c0,0.9,0.7,1.7,1.6,1.7c0.9,0,1.7-0.7,1.7-1.6c0,0,0,0,0,0
			c0-0.2,0-0.5-0.1-0.7l2.1-3.1c0.2,0.1,0.4,0.1,0.7,0.1c0.3,0,0.6-0.1,0.9-0.2l1.8,2.5c-0.1,0.3-0.2,0.6-0.2,0.9
			c0,1.2,1,2.2,2.2,2.2c1.2,0,2.2-1,2.2-2.2c0-0.4-0.1-0.8-0.3-1.2l2.1-4.5C23.2,10.8,23.8,10.1,23.8,9.3z"/>
	</g>
</g>
</svg>
