<?xml version="1.0" encoding="iso-8859-1"?>
<!-- Generator: Adobe Illustrator 19.0.0, SVG Export Plug-In . SVG Version: 6.00 Build 0)  -->
<!DOCTYPE svg PUBLIC "-//W3C//DTD SVG 1.1//EN" "http://www.w3.org/Graphics/SVG/1.1/DTD/svg11.dtd">
<svg version="1.1" id="Layer_1" xmlns="http://www.w3.org/2000/svg" xmlns:xlink="http://www.w3.org/1999/xlink" x="0px" y="0px"
	 viewBox="0 0 32 32" style="enable-background:new 0 0 32 32;" xml:space="preserve">
<g id="XMLID_2_">
	<polygon id="XMLID_4_" style="fill:#FFFFFF;" points="3,29 3,3 29,3 29,28.9 27.2,28.9 27.2,29 	"/>
	<g id="XMLID_1_">
		<path id="XMLID_9_" style="fill:#64AB23;" d="M30.2,0h-5.6H7.4H1.8C0.8,0,0,0.8,0,1.8v5.6v17.2v5.6c0,1,0.8,1.8,1.8,1.8h5.6h17.2
			h5.6v-0.1c1,0,1.8-0.8,1.8-1.8v-5.5V7.4V1.8C32,0.8,31.2,0,30.2,0z M9.4,20.3c0,0-2.8,1.7-2.8,1.7s-0.2-0.1-0.2-0.1
			c0-0.1,0.8-2.6,0.8-2.6c-2.1-1.5-3.2-3.5-3.2-5.9c0-4.1,3.9-7.5,8.6-7.4c4.6,0.1,7.8,2.9,8.6,6.4c-2.7-0.3-7.5,1.2-8.4,6
			c-0.2,0.9,0,1.9,0.2,2.5C12.8,20.8,11.5,21,9.4,20.3z M26,25.9c0,0.1-0.1,0.2-0.2,0.2c-0.1,0-2.2-1.3-2.2-1.3
			c-0.9,0.4-2.2,0.6-3,0.6c-4.3,0-7.4-2.9-7.4-6.4c0-3.5,3.3-6.2,7.4-6.2c3.9,0,7.3,2.7,7.3,6.1c0,2-0.7,3.5-2.5,4.9
			C25.3,23.9,26,25.8,26,25.9z"/>
		<circle id="XMLID_14_" style="fill:#64AB23;" cx="15.9" cy="10.9" r="1.1"/>
		<circle id="XMLID_15_" style="fill:#64AB23;" cx="9.2" cy="10.9" r="1.1"/>
		<circle id="XMLID_16_" style="fill:#64AB23;" cx="17.9" cy="16.7" r="1"/>
		<circle id="XMLID_17_" style="fill:#64AB23;" cx="23.2" cy="16.7" r="1"/>
	</g>
</g>
<g id="XMLID_5_">
</g>
<g id="XMLID_6_">
</g>
<g id="XMLID_7_">
</g>
<g id="XMLID_11_">
</g>
<g id="XMLID_12_">
</g>
<g id="XMLID_13_">
</g>
</svg>
