<?xml version="1.0" encoding="utf-8"?>
<!-- Generator: Adobe Illustrator 24.2.1, SVG Export Plug-In . SVG Version: 6.00 Build 0)  -->
<svg version="1.1" id="Layer_1" xmlns="http://www.w3.org/2000/svg" xmlns:xlink="http://www.w3.org/1999/xlink" x="0px" y="0px"
	 viewBox="0 0 32 32" style="enable-background:new 0 0 32 32;" xml:space="preserve">
<style type="text/css">
	.st0{fill:#3889C9;}
	.st1{fill:#FFFFFF;}
</style>
<g id="Layer_2_1_">
	<g id="Layer_1-2">
		<path class="st0" d="M25.8,26c3.5-0.1,6.3-3,6.2-6.5c0-3.3-2.6-6-5.9-6.2l-0.2-0.1c-0.4-4.1-3.9-7.2-8-7.3
			c-3.1,0.1-5.9,1.9-7.2,4.7c-2.3-1.1-5.1-0.2-6.2,2.1C4.2,13.4,4,14.1,4,14.7c-2.4,0.7-4,2.9-4,5.4l0,0c-0.1,3.1,2.3,5.7,5.5,5.8
			c0,0,0,0,0,0H25.8z"/>
		<path class="st1" d="M22.5,20.7c-1-0.6-1.6-2.1-2.6-1.7c-1.1,0.3-1.7,1.7-2.6,2.8c-0.4,0.5-1,0.9-1.7,1.1
			c-0.4-0.8-0.9-2.7-1.6-3.4c-0.2-0.2-0.5-0.3-0.7-0.2l0,0c1.7-1.3,3-3.7,4-6.9c0.2-0.5,0.3-1,0.6-1.6c0.2-0.3,0.5-0.5,0.7-0.5
			C19.6,10.3,20.9,17,22.5,20.7z M16.7,11.6c-0.5,0.9-1,1.9-1.7,2.1c-0.7,0.3-1.3,0.9-1.7,1.6l1.3,1.1c0.8-1.4,1.5-2.8,2-4.3
			L16.7,11.6z M13.9,17l-1.3-1.2l-3.2,1.5l2.3,1.9C12.6,18.6,13.4,17.9,13.9,17z"/>
	</g>
</g>
</svg>
