<?xml version="1.0" encoding="utf-8"?>
<!-- Generator: Adobe Illustrator 24.2.1, SVG Export Plug-In . SVG Version: 6.00 Build 0)  -->
<svg version="1.1" id="Layer_1" xmlns="http://www.w3.org/2000/svg" xmlns:xlink="http://www.w3.org/1999/xlink" x="0px" y="0px"
	 viewBox="0 0 32 32" style="enable-background:new 0 0 32 32;" xml:space="preserve">
<style type="text/css">
	.st0{fill:#BCBCBC;}
	.st1{fill:#FFFFFF;}
	.st2{fill:#F8A81A;}
	.st3{fill:#D16432;}
</style>
<g id="Layer_2_1_">
	<g id="Layer_1-2">
		<path class="st0" d="M26.7,24c1.5,0,2.7-1.2,2.7-2.7V8c0-1.5-1.2-2.7-2.7-2.7H5.3C3.9,5.3,2.7,6.5,2.7,8v13.3
			c0,1.5,1.2,2.7,2.6,2.7c0,0,0,0,0,0h-4C0.6,24,0,24.6,0,25.3s0.6,1.3,1.3,1.3c0,0,0,0,0,0h29.3c0.7,0,1.3-0.6,1.3-1.3
			c0-0.7-0.6-1.3-1.3-1.3H26.7z"/>
		<path class="st1" d="M6.5,7.2h19c1.1,0,2,0.9,2,2v11c0,1.1-0.9,2-2,2h-19c-1.1,0-2-0.9-2-2v-11C4.5,8.1,5.4,7.2,6.5,7.2z"/>
		<path class="st2" d="M19.9,12.7l-0.5-0.8l0.3-0.8L19,10.5l-0.1-0.9L18,9.5l-0.4-0.8l-0.9,0.2L16,8.3l-0.7,0.6l-0.9-0.2L14,9.5
			l-0.9,0.2L13,10.5l-0.7,0.5l0.3,0.8l-0.5,0.8l0.6,0.7l-0.1,0.9l0.8,0.4l0.3,0.9h0.9l0.6,0.7l0.8-0.4l0.8,0.4l0.6-0.7h0.9l0.3-0.9
			l0.8-0.4l-0.1-0.9L19.9,12.7z M16,10.2c1.1,0,2.1,0.9,2.1,2s-0.9,2.1-2,2.1c-1.1,0-2.1-0.9-2.1-2c0,0,0,0,0,0
			C14,11.1,14.9,10.2,16,10.2z"/>
		<path class="st3" d="M18.2,16h-0.5l-0.4,0.3L17,16.5l-0.4-0.1L16,16.2l-0.6,0.2l-0.4,0.1l-0.3-0.2L14.4,16h-0.6l-1,2.8
			c0,0.1,0.1,0.1,0.2,0.1l1.1-0.4c0.1,0,0.1,0,0.2,0l0.6,0.8c0.1,0.1,0.2,0.1,0.2,0c0,0,0,0,0,0l0.9-2.3l1,3.3c0,0.1,0.2,0.1,0.2,0
			l0.7-0.8c0.1,0,0.1,0,0.2,0l1.1,0.5c0.1,0,0.2,0,0.2-0.1L18.2,16z"/>
	</g>
</g>
</svg>
