<?xml version="1.0" encoding="utf-8"?>
<!-- Generator: Adobe Illustrator 24.2.1, SVG Export Plug-In . SVG Version: 6.00 Build 0)  -->
<svg version="1.1" id="Layer_1" xmlns="http://www.w3.org/2000/svg" xmlns:xlink="http://www.w3.org/1999/xlink" x="0px" y="0px"
	 viewBox="0 0 32 32" style="enable-background:new 0 0 32 32;" xml:space="preserve">
<style type="text/css">
	.st0{fill:#43A7DE;}
	.st1{fill:#3889C9;}
</style>
<g id="Layer_2_1_">
	<g id="Layer_1-2">
		<path class="st0" d="M14,4.6V0L6,8l8,8v-4.6c5.5-0.8,10.7,2.4,12.4,7.7c1.4-6.5-2.7-12.9-9.2-14.3C16.1,4.6,15.1,4.5,14,4.6z"/>
		<path class="st1" d="M8.3,17.4c-1.3-1.3-2.2-2.8-2.7-4.5c-1.4,6.5,2.7,12.9,9.2,14.3c1.1,0.2,2.1,0.3,3.2,0.2V32l8-8l-8-8v4.6
			C14.5,21.1,10.9,20,8.3,17.4z"/>
	</g>
</g>
</svg>
