<?xml version="1.0" encoding="utf-8"?>
<!-- Generator: Adobe Illustrator 18.0.0, SVG Export Plug-In . SVG Version: 6.00 Build 0)  -->
<!DOCTYPE svg PUBLIC "-//W3C//DTD SVG 1.1//EN" "http://www.w3.org/Graphics/SVG/1.1/DTD/svg11.dtd">
<svg version="1.1" id="Layer_1" xmlns="http://www.w3.org/2000/svg" xmlns:xlink="http://www.w3.org/1999/xlink" x="0px" y="0px"
	 viewBox="0 0 32 32" enable-background="new 0 0 32 32" xml:space="preserve">
<path id="Blue_1_" fill="#E8621D" d="M30.2,32c1,0,1.8-0.8,1.8-1.8V1.8c0-1-0.8-1.8-1.8-1.8H1.8C0.8,0,0,0.8,0,1.8v28.5
	c0,1,0.8,1.8,1.8,1.8H30.2z"/>
<path fill="#FFFFFF" d="M6.7,6.4c0,0,18.2-0.9,19.6,18.3h-3.7c0,0,0.7-14-15.9-15.2C6.7,9.4,6.7,6.4,6.7,6.4z"/>
<path fill="#FFFFFF" d="M6.7,12.8c0,0,10.7-0.4,12.7,11.9h-3.7c0,0-0.4-7.3-9-8.9C6.7,15.8,6.7,12.8,6.7,12.8z"/>
<path fill="#FFFFFF" d="M8.7,20.8c1.3,0,2.3,1,2.3,2.3c0,1.3-1,2.3-2.3,2.3s-2.3-1-2.3-2.3C6.3,21.8,7.4,20.8,8.7,20.8z"/>
</svg>
