<?xml version="1.0" encoding="utf-8"?>
<!-- Generator: Adobe Illustrator 24.2.1, SVG Export Plug-In . SVG Version: 6.00 Build 0)  -->
<svg version="1.1" id="Layer_1" xmlns="http://www.w3.org/2000/svg" xmlns:xlink="http://www.w3.org/1999/xlink" x="0px" y="0px"
	 viewBox="0 0 32 32" style="enable-background:new 0 0 32 32;" xml:space="preserve">
<style type="text/css">
	.st0{fill:#F8A81A;}
</style>
<g id="Layer_2_1_">
	<g id="Layer_1-2">
		<path class="st0" d="M16,2C8.3,2,2,8.3,2,16s6.3,14,14,14s14-6.3,14-14S23.7,2,16,2z M13.2,20.9v-9.8c0-0.4,0.3-0.7,0.7-0.7
			c0.2,0,0.3,0,0.4,0.1l6.5,4.9c0.3,0.2,0.4,0.7,0.2,1c0,0.1-0.1,0.1-0.2,0.2l-6.5,4.9c-0.3,0.2-0.7,0.2-1-0.1
			C13.2,21.2,13.2,21.1,13.2,20.9z"/>
	</g>
</g>
</svg>
