<?xml version="1.0" encoding="utf-8"?>
<!-- Generator: Adobe Illustrator 18.0.0, SVG Export Plug-In . SVG Version: 6.00 Build 0)  -->
<!DOCTYPE svg PUBLIC "-//W3C//DTD SVG 1.1//EN" "http://www.w3.org/Graphics/SVG/1.1/DTD/svg11.dtd">
<svg version="1.1" id="Layer_1" xmlns="http://www.w3.org/2000/svg" xmlns:xlink="http://www.w3.org/1999/xlink" x="0px" y="0px"
	 viewBox="0 0 32 32" enable-background="new 0 0 32 32" xml:space="preserve">
<path id="Blue_1_" fill="#007BB5" d="M30.2,32c1,0,1.8-0.8,1.8-1.8V1.8c0-1-0.8-1.8-1.8-1.8H1.8C0.8,0,0,0.8,0,1.8v28.5
	c0,1,0.8,1.8,1.8,1.8H30.2z"/>
<path fill="#FFFFFF" d="M4.7,12h4.7v15.3H4.7V12z M7.1,4.4c1.5,0,2.8,1.2,2.8,2.8c0,1.5-1.2,2.8-2.8,2.8c-1.5,0-2.8-1.2-2.8-2.8
	C4.4,5.6,5.6,4.4,7.1,4.4"/>
<path fill="#FFFFFF" d="M12.5,12H17v2.1h0.1c0.6-1.2,2.2-2.5,4.5-2.5c4.8,0,5.7,3.2,5.7,7.3v8.4h-4.7v-7.4c0-1.8,0-4.1-2.5-4.1
	c-2.5,0-2.8,1.9-2.8,3.9v7.6h-4.7V12z"/>
</svg>
