<?xml version="1.0" encoding="utf-8"?>
<!-- Generator: Adobe Illustrator 19.1.1, SVG Export Plug-In . SVG Version: 6.00 Build 0)  -->
<svg version="1.1" id="Layer_1" xmlns="http://www.w3.org/2000/svg" xmlns:xlink="http://www.w3.org/1999/xlink" x="0px" y="0px"
	 viewBox="4 -4 32 32" enable-background="new 4 -4 32 32" xml:space="preserve">
<linearGradient id="Blue_1_" gradientUnits="userSpaceOnUse" x1="20" y1="28" x2="20" y2="-4">
	<stop  offset="0" style="stop-color:#DB0B00"/>
	<stop  offset="1" style="stop-color:#E85700"/>
</linearGradient>
<path id="Blue_2_" fill="url(#Blue_1_)" d="M34.2,27.9c1,0,1.8-0.8,1.8-1.79V-2.21C36-3.2,35.2-4,34.2-4H5.8C4.8-4,4-3.2,4-2.21
	v28.41C4,27.2,4.8,28,5.8,28h28.4V27.9z"/>
<path fill="#FFFFFF" d="M34,25c0,0.55-0.45,1-1,1H7c-0.55,0-1-0.45-1-1V-1c0-0.55,0.45-1,1-1h26c0.55,0,1,0.45,1,1V25z"/>
<g>
	<g>
		<g>
			<defs>
				<path id="SVGID_1_" d="M32,23.5c0,0.8-0.7,1.5-1.5,1.5h-22C7.7,25,7,24.3,7,23.5v-22C7,0.7,7.7,0,8.5,0h22C31.3,0,32,0.7,32,1.5
					V23.5z"/>
			</defs>
			<clipPath id="SVGID_2_">
				<use xlink:href="#SVGID_1_"  overflow="visible"/>
			</clipPath>
			<path clip-path="url(#SVGID_2_)" fill="#FFFFFF" d="M4.2,20.7c0,3.5,4.5,6.3,10.2,6.3s10.2-2.8,10.2-6.3s-4.5-6.3-10.2-6.3
				S4.2,17.2,4.2,20.7"/>
		</g>
	</g>
	<g>
		<g>
			<defs>
				<path id="SVGID_3_" d="M32,23.5c0,0.8-0.7,1.5-1.5,1.5h-22C7.7,25,7,24.3,7,23.5v-22C7,0.7,7.7,0,8.5,0h22C31.3,0,32,0.7,32,1.5
					V23.5z"/>
			</defs>
			<clipPath id="SVGID_4_">
				<use xlink:href="#SVGID_3_"  overflow="visible"/>
			</clipPath>
			<path clip-path="url(#SVGID_4_)" fill="#E6162D" d="M14.6,26.5c-5,0.5-9.2-1.8-9.6-5c-0.3-3.3,3.4-6.3,8.4-6.8s9.2,1.8,9.6,5
				C23.3,23,19.6,26,14.6,26.5 M24.5,15.7c-0.4-0.1-0.7-0.2-0.5-0.8c0.5-1.2,0.5-2.2,0-3c-1-1.4-3.6-1.3-6.7,0c0,0-1,0.4-0.7-0.3
				c0.5-1.5,0.4-2.8-0.3-3.5c-1.7-1.7-6.1,0.1-9.8,3.8C3.7,14.7,2,17.7,2,20.3c0,5,6.4,8,12.6,8c8.2,0,13.6-4.7,13.6-8.5
				C28.2,17.5,26.3,16.2,24.5,15.7"/>
		</g>
	</g>
	<g>
		<g>
			<defs>
				<path id="SVGID_5_" d="M32,23.5c0,0.8-0.7,1.5-1.5,1.5h-22C7.7,25,7,24.3,7,23.5v-22C7,0.7,7.7,0,8.5,0h22C31.3,0,32,0.7,32,1.5
					V23.5z"/>
			</defs>
			<clipPath id="SVGID_6_">
				<use xlink:href="#SVGID_5_"  overflow="visible"/>
			</clipPath>
			<path clip-path="url(#SVGID_6_)" fill="#FF9933" d="M30,6.6c-2-2.2-4.9-3-7.6-2.4l0,0c-0.6,0.1-1,0.7-0.9,1.4
				c0.1,0.6,0.7,1,1.4,0.9c1.9-0.4,4,0.2,5.4,1.7c1.4,1.6,1.8,3.7,1.2,5.5l0,0c-0.2,0.6,0.1,1.3,0.7,1.4c0.6,0.2,1.3-0.1,1.4-0.7
				l0,0C32.5,11.8,31.9,8.8,30,6.6"/>
		</g>
	</g>
	<g>
		<g>
			<defs>
				<path id="SVGID_7_" d="M32,23.5c0,0.8-0.7,1.5-1.5,1.5h-22C7.7,25,7,24.3,7,23.5v-22C7,0.7,7.7,0,8.5,0h22C31.3,0,32,0.7,32,1.5
					V23.5z"/>
			</defs>
			<clipPath id="SVGID_8_">
				<use xlink:href="#SVGID_7_"  overflow="visible"/>
			</clipPath>
			<path clip-path="url(#SVGID_8_)" fill="#FF9933" d="M26.9,9.3c-1-1.1-2.4-1.5-3.7-1.2c-0.5,0.1-0.9,0.6-0.8,1.2
				c0.1,0.5,0.6,0.9,1.2,0.8l0,0c0.6-0.1,1.3,0.1,1.8,0.6s0.6,1.2,0.4,1.8l0,0c-0.2,0.5,0.1,1.1,0.6,1.2c0.5,0.2,1.1-0.1,1.2-0.6
				C28.1,11.9,27.9,10.4,26.9,9.3"/>
		</g>
	</g>
	<g>
		<g>
			<defs>
				<path id="SVGID_9_" d="M32,23.5c0,0.8-0.7,1.5-1.5,1.5h-22C7.7,25,7,24.3,7,23.5v-22C7,0.7,7.7,0,8.5,0h22C31.3,0,32,0.7,32,1.5
					V23.5z"/>
			</defs>
			<clipPath id="SVGID_10_">
				<use xlink:href="#SVGID_9_"  overflow="visible"/>
			</clipPath>
			<path clip-path="url(#SVGID_10_)" d="M14.9,20.6c-0.2,0.3-0.6,0.4-0.9,0.3c-0.3-0.1-0.4-0.5-0.2-0.7c0.2-0.3,0.5-0.4,0.8-0.3
				C14.9,20,15.1,20.3,14.9,20.6 M13.3,22.6c-0.5,0.8-1.5,1.1-2.3,0.7c-0.8-0.3-1-1.2-0.5-2c0.5-0.6,1.5-1,2.3-0.7
				C13.5,21,13.8,21.9,13.3,22.6 M15.1,17.2c-2.4-0.6-5,0.6-6.1,2.6c-1,2.1,0,4.5,2.4,5.2c2.5,0.8,5.4-0.4,6.4-2.7
				C18.8,20.2,17.6,17.8,15.1,17.2"/>
		</g>
	</g>
</g>
</svg>
