<?xml version="1.0" encoding="utf-8"?>
<!-- Generator: Adobe Illustrator 24.2.1, SVG Export Plug-In . SVG Version: 6.00 Build 0)  -->
<svg version="1.1" id="Layer_1" xmlns="http://www.w3.org/2000/svg" xmlns:xlink="http://www.w3.org/1999/xlink" x="0px" y="0px"
	 viewBox="0 0 32 32" style="enable-background:new 0 0 32 32;" xml:space="preserve">
<style type="text/css">
	.st0{fill:#F8A81A;}
</style>
<g id="Layer_2_1_">
	<g id="Layer_1-2">
		<path class="st0" d="M4.9,28.5h22.1c1.6,0,2.9-1.3,2.9-2.9c0-0.5-0.1-1-0.4-1.5L18.5,5c-0.8-1.4-2.6-1.9-4-1.1
			c-0.4,0.3-0.8,0.6-1.1,1.1L2.4,24.1c-0.8,1.4-0.4,3.2,1,4C3.9,28.4,4.4,28.5,4.9,28.5z M16,19.6c-0.8,0-1.5-0.7-1.5-1.5l0,0v-4.9
			c0-0.8,0.7-1.5,1.5-1.5c0.8,0,1.5,0.7,1.5,1.5c0,0,0,0,0,0v4.9C17.5,19,16.8,19.6,16,19.6z M17.5,24.1h-2.9v-2.9h2.9V24.1z"/>
	</g>
</g>
</svg>
