<?xml version="1.0" encoding="utf-8"?>
<!-- Generator: Adobe Illustrator 24.2.1, SVG Export Plug-In . SVG Version: 6.00 Build 0)  -->
<svg version="1.1" id="Layer_1" xmlns="http://www.w3.org/2000/svg" xmlns:xlink="http://www.w3.org/1999/xlink" x="0px" y="0px"
	 viewBox="0 0 32 32" style="enable-background:new 0 0 32 32;" xml:space="preserve">
<style type="text/css">
	.st0{fill:#43A7DE;}
</style>
<g id="Layer_2_1_">
	<g id="Layer_1-2">
		<path class="st0" d="M25.3,4H6.7C5.2,4,4,5.2,4,6.7v18.7C4,26.8,5.2,28,6.7,28h18.7c1.5,0,2.7-1.2,2.7-2.7V6.7
			C28,5.2,26.8,4,25.3,4z M16,24c-0.9,0-1.7-0.8-1.7-1.7l0,0c0-0.9,0.7-1.7,1.6-1.7c0,0,0,0,0,0c0.9,0,1.7,0.7,1.7,1.6
			c0,0,0,0,0,0.1C17.7,23.2,16.9,24,16,24C16,24,16,24,16,24z M20,14.1c-1,1.5-2,1.9-2.5,2.9c-0.2,0.4-0.3,0.6-0.3,1.9h-2.4
			c-0.1-0.9,0-1.8,0.4-2.6c0.6-1.2,1.9-1.9,2.6-2.9c0.6-0.9,0.4-2.2-0.5-2.8c-0.4-0.3-0.8-0.4-1.3-0.3c-1.2,0-2.1,0.9-2.4,2
			l-2.2-0.9C12,9.3,13.9,8,16,8c1.6-0.1,3.1,0.7,4,2C20.8,11.3,20.8,12.9,20,14.1z"/>
	</g>
</g>
</svg>
