<?xml version="1.0" encoding="utf-8"?>
<!-- Generator: Adobe Illustrator 24.2.1, SVG Export Plug-In . SVG Version: 6.00 Build 0)  -->
<svg version="1.1" id="Layer_1" xmlns="http://www.w3.org/2000/svg" xmlns:xlink="http://www.w3.org/1999/xlink" x="0px" y="0px"
	 viewBox="0 0 32 32" style="enable-background:new 0 0 32 32;" xml:space="preserve">
<style type="text/css">
	.st0{fill:#BCBCBC;}
	.st1{fill:#FFFFFF;}
	.st2{fill:#D16432;}
</style>
<g id="Layer_2_1_">
	<g id="Layer_1-2">
		<path class="st0" d="M26.7,24c1.5,0,2.7-1.2,2.7-2.7V8c0-1.5-1.2-2.7-2.7-2.7H5.3C3.9,5.3,2.7,6.5,2.7,8v13.3
			c0,1.5,1.2,2.7,2.6,2.7c0,0,0,0,0,0h-4C0.6,24,0,24.6,0,25.3s0.6,1.3,1.3,1.3c0,0,0,0,0,0h29.3c0.7,0,1.3-0.6,1.3-1.3
			c0-0.7-0.6-1.3-1.3-1.3H26.7z"/>
		<path class="st1" d="M6.5,7.2h19c1.1,0,2,0.9,2,2v11c0,1.1-0.9,2-2,2h-19c-1.1,0-2-0.9-2-2v-11C4.5,8.1,5.4,7.2,6.5,7.2z"/>
		<path class="st2" d="M12.3,16.5l-2-1.4c0.9-0.4,1.8-0.7,2.7-1l1.1,0.9C13.6,15.5,13,16,12.3,16.5 M19.7,13.6
			c-0.2-0.6-0.4-1.1-0.6-1.7c-0.2-0.6-0.4-1.2-0.7-1.7C18.3,10,18,9.5,17.7,9.5c-0.1,0-0.2,0-0.2,0.1c-0.2,0.2-0.5,0.5-0.6,0.8
			c-0.2,0.4-0.5,0.8-0.8,1.2c-0.1,0.1-0.2,0.2-0.3,0.3c-0.2,0.2-0.4,0.3-0.6,0.4l-0.2,0.1c-0.2,0.1-0.3,0.1-0.5,0.3
			c-0.2,0.2-0.4,0.4-0.6,0.7l-0.2,0.2l1,0.8c1-1,1.8-2.2,2.3-3.6c-0.3,1.4-0.9,2.8-1.9,3.9c-0.6,0.7-1.3,1.4-2,2c0.2,0,0.4,0,0.5,0
			c0.5,0.2,0.8,1,1,1.5c0.2,0.4,0.4,0.8,0.5,1.2c0.5-0.1,0.9-0.3,1.2-0.7c0.4-0.4,0.7-0.7,1-1.1c0.6-0.7,1.4-1.7,2.3-1.3
			c0.2,0.1,0.3,0.2,0.4,0.3c0.2,0.2,0.3,0.3,0.5,0.5c0.2,0.2,0.5,0.4,0.7,0.6C20.7,16.4,20.2,15,19.7,13.6"/>
	</g>
</g>
</svg>
