<?xml version="1.0" encoding="utf-8"?>
<!-- Generator: Adobe Illustrator 24.2.1, SVG Export Plug-In . SVG Version: 6.00 Build 0)  -->
<svg version="1.1" id="Layer_1" xmlns="http://www.w3.org/2000/svg" xmlns:xlink="http://www.w3.org/1999/xlink" x="0px" y="0px"
	 viewBox="0 0 32 32" style="enable-background:new 0 0 32 32;" xml:space="preserve">
<style type="text/css">
	.st0{fill:#41B554;}
	.st1{fill:#FFFFFF;}
</style>
<g id="Layer_2_1_">
	<g id="Layer_1-2">
		<path class="st0" d="M26.3,14.3L26.3,14.3V8.6c0-1.6-1.3-2.9-2.9-2.9h-5.8c0.1-2-1.4-3.7-3.4-3.8c-2-0.1-3.7,1.4-3.8,3.4
			c0,0.1,0,0.3,0,0.4H4.8C3.2,5.7,1.9,7,1.9,8.5c0,0,0,0,0,0V14l0,0c2.1,0,3.9,1.7,3.9,3.9c0,2.1-1.7,3.9-3.9,3.9l0,0v5.5
			c0,1.6,1.3,2.9,2.9,2.9h5.4V30c-0.1-2.1,1.5-4,3.7-4.1s4,1.5,4.1,3.7c0,0.1,0,0.3,0,0.4v0.1h5.4c1.6,0,2.9-1.3,2.9-2.9v-5.8l0,0
			c2,0.1,3.7-1.4,3.8-3.4c0.1-2-1.4-3.7-3.4-3.8C26.6,14.3,26.4,14.3,26.3,14.3L26.3,14.3z"/>
		<path class="st1" d="M20.4,16.5l-2.7-3.7c-0.2-0.3-0.6-0.5-1-0.5l0,0c-0.7,0-1.2,0.5-1.2,1.2c0,0.3,0.1,0.5,0.2,0.7l1.9,2.7
			l-1.9,2.7c-0.4,0.5-0.3,1.3,0.3,1.7c0.2,0.2,0.5,0.2,0.7,0.2l0,0c0.4,0,0.8-0.2,1-0.5l2.7-3.7C20.5,17,20.5,16.7,20.4,16.5z"/>
		<path class="st1" d="M15,16.5l-2.6-3.7c-0.2-0.3-0.6-0.5-1-0.5l0,0c-0.7,0-1.2,0.5-1.2,1.2c0,0.3,0.1,0.5,0.2,0.7l1.9,2.7
			l-1.9,2.7c-0.4,0.5-0.3,1.3,0.3,1.7c0.2,0.2,0.5,0.2,0.7,0.2l0,0c0.4,0,0.8-0.2,1-0.5l2.7-3.7C15.2,17,15.2,16.7,15,16.5z"/>
	</g>
</g>
</svg>
