<?xml version="1.0" encoding="utf-8"?>
<!-- Generator: Adobe Illustrator 24.2.1, SVG Export Plug-In . SVG Version: 6.00 Build 0)  -->
<svg version="1.1" id="Layer_1" xmlns="http://www.w3.org/2000/svg" xmlns:xlink="http://www.w3.org/1999/xlink" x="0px" y="0px"
	 viewBox="0 0 32 32" style="enable-background:new 0 0 32 32;" xml:space="preserve">
<style type="text/css">
	.st0{fill:#BCBCBC;}
	.st1{fill:#43A7DE;}
</style>
<g id="Layer_2_1_">
	<g id="Layer_1-2">
		<path class="st0" d="M21.1,14.7c2.1,0,3.8-1.7,3.8-3.8s-1.7-3.8-3.8-3.8s-3.8,1.7-3.8,3.8l0,0C17.3,13,19,14.7,21.1,14.7
			C21.1,14.7,21.1,14.7,21.1,14.7z"/>
		<path class="st1" d="M10.9,14.7c2.1,0,3.8-1.7,3.8-3.8S13,7.1,10.9,7.1s-3.8,1.7-3.8,3.8l0,0C7.1,13,8.8,14.7,10.9,14.7
			C10.9,14.7,10.9,14.7,10.9,14.7z"/>
		<path class="st1" d="M10.9,17.3c-3,0-8.9,1.5-8.9,4.5v1.9c0,0.7,0.6,1.3,1.3,1.3c0,0,0,0,0,0h15.3c0.7,0,1.3-0.6,1.3-1.3
			c0,0,0,0,0,0v-1.9C19.8,18.8,13.9,17.3,10.9,17.3z"/>
		<path class="st0" d="M21.1,17.3c-0.4,0-0.8,0-1.2,0.1l0,0c1.5,0.9,2.4,2.6,2.5,4.3v1.9c0,0.4-0.1,0.9-0.2,1.3h6.6
			c0.7,0,1.3-0.6,1.3-1.3c0,0,0,0,0,0v-1.9C30,18.8,24.1,17.3,21.1,17.3z"/>
	</g>
</g>
</svg>
